<svg width="137" height="40" viewBox="0 0 137 40" fill="none" xmlns="http://www.w3.org/2000/svg">
<path d="M131.926 40H5.07414C2.2331 40 0 37.7995 0 35V5C0 2.20047 2.2331 0 5.07414 0H131.926C134.767 0 137 2.20047 137 5V35C137 37.7995 134.767 40 131.926 40Z" fill="black"/>
<path d="M131.926 0.799865C134.26 0.799865 136.188 2.69997 136.188 5V35C136.188 37.3 134.26 39.2001 131.926 39.2001H5.07414C2.74 39.2001 0.811725 37.3 0.811725 35V5C0.811725 2.69997 2.74 0.799865 5.07414 0.799865H131.926ZM131.926 0H5.07414C2.2331 0 0 2.30003 0 5V35C0 37.7995 2.2331 40 5.07414 40H131.926C134.767 40 137 37.7995 137 35V5C137 2.30003 134.767 0 131.926 0Z" fill="#A6A6A6"/>
<path d="M21.4899 6.83984H11.3554C10.1415 6.83984 9.15625 7.80811 9.15625 9.0011V31.0679C9.15625 32.2633 10.1415 33.2292 11.3554 33.2292H21.4899C22.7063 33.2292 23.6915 32.2609 23.6915 31.0679V9.0011C23.6915 7.80572 22.7063 6.83984 21.4899 6.83984ZM16.4227 31.6441C15.6126 31.6441 14.9582 30.9986 14.9582 30.2049C14.9582 29.4111 15.615 28.7656 16.4227 28.7656C17.2303 28.7656 17.8871 29.4111 17.8871 30.2049C17.8871 30.9986 17.2303 31.6441 16.4227 31.6441ZM21.9619 28.0627H10.881V11.7863H21.9619V28.0627Z" fill="white"/>
<path d="M31.9906 10.7728L31.3751 12.6065H30.582L32.5963 6.77539H33.5207L35.5447 12.6065H34.7273L34.0948 10.7728H31.9906ZM33.9367 10.187L33.348 8.5087C33.2239 8.12857 33.1363 7.78191 33.0488 7.44481H33.022C32.9417 7.78191 32.8469 8.1453 32.7301 8.49914L32.1487 10.187H33.9343H33.9367Z" fill="white"/>
<path d="M36.3408 8.4209L37.1776 10.7662C37.3187 11.1559 37.4331 11.5026 37.5206 11.8469H37.5474C37.6447 11.5002 37.7663 11.1559 37.9074 10.7662L38.7345 8.4209H39.5446L37.8709 12.6071H37.1314L35.5137 8.4209H36.3408Z" fill="white"/>
<path d="M43.1082 11.6048C43.1082 11.9682 43.1252 12.322 43.1714 12.6065H42.4757L42.4051 12.0782H42.3784C42.1497 12.4081 41.6826 12.6998 41.0769 12.6998C40.2133 12.6998 39.7754 12.1021 39.7754 11.4972C39.7754 10.4835 40.6901 9.93126 42.337 9.94082V9.85475C42.337 9.50809 42.2397 8.87692 41.3688 8.88649C40.9625 8.88649 40.5514 8.99885 40.2498 9.19729L40.0722 8.68566C40.4249 8.47049 40.9431 8.32227 41.4807 8.32227C42.7919 8.32227 43.1082 9.1949 43.1082 10.0364V11.6024V11.6048ZM42.3516 10.4716C41.5075 10.4548 40.549 10.6007 40.549 11.4159C40.549 11.918 40.8823 12.1427 41.2691 12.1427C41.8334 12.1427 42.1935 11.7961 42.3175 11.4422C42.3443 11.3633 42.3516 11.2773 42.3516 11.2008V10.474V10.4716Z" fill="white"/>
<path d="M44.6745 7.65122C44.385 7.65122 44.1904 7.42648 44.1904 7.15872C44.1904 6.89095 44.3923 6.67578 44.6916 6.67578C44.9908 6.67578 45.1854 6.89095 45.1854 7.15872C45.1854 7.42648 44.9908 7.65122 44.6843 7.65122H44.6745ZM44.3048 12.6073V8.42104H45.0784V12.6073H44.3048Z" fill="white"/>
<path d="M46.3184 6.46777H47.092V12.6097H46.3184V6.46777Z" fill="white"/>
<path d="M51.3357 11.6048C51.3357 11.9682 51.3527 12.322 51.3965 12.6065H50.7008L50.6302 12.0782H50.6034C50.3748 12.4081 49.9077 12.6998 49.2995 12.6998C48.4384 12.6998 47.998 12.1021 47.998 11.4972C47.998 10.4835 48.9127 9.93126 50.5597 9.94082V9.85475C50.5597 9.50809 50.4624 8.87692 49.5915 8.88649C49.1876 8.88649 48.7741 8.99885 48.4748 9.19729L48.2973 8.68566C48.65 8.47049 49.1682 8.32227 49.7058 8.32227C51.017 8.32227 51.3332 9.1949 51.3332 10.0364V11.6024L51.3357 11.6048ZM50.5791 10.4716C49.735 10.4548 48.7741 10.6007 48.7741 11.4159C48.7741 11.918 49.1098 12.1427 49.4966 12.1427C50.061 12.1427 50.421 11.7961 50.5451 11.4422C50.5718 11.3633 50.5816 11.2773 50.5816 11.2008V10.474L50.5791 10.4716Z" fill="white"/>
<path d="M52.5321 6.46777H53.3057V9.08806H53.3227C53.5952 8.62186 54.0866 8.32779 54.775 8.32779C55.8308 8.32779 56.5703 9.19325 56.5703 10.4556C56.5703 11.9594 55.6021 12.7053 54.6509 12.7053C54.0355 12.7053 53.5514 12.471 53.2254 11.9187H53.2059L53.1622 12.6097H52.4932C52.5199 12.3228 52.5272 11.8996 52.5272 11.529V6.46777H52.5321ZM53.3057 10.9313C53.3057 11.0246 53.3154 11.1202 53.3324 11.2087C53.4808 11.737 53.9406 12.1004 54.4928 12.1004C55.3126 12.1004 55.787 11.4525 55.787 10.4914C55.787 9.64511 55.3467 8.92788 54.5196 8.92788C53.9917 8.92788 53.4979 9.29128 53.3495 9.86028C53.3227 9.95591 53.3057 10.0587 53.3057 10.1806V10.9337V10.9313Z" fill="white"/>
<path d="M57.4951 6.46777H58.2687V12.6097H57.4951V6.46777Z" fill="white"/>
<path d="M59.9519 10.644C59.9689 11.6745 60.6282 12.0976 61.4042 12.0976C61.9589 12.0976 62.3019 12.002 62.5841 11.8896L62.7252 12.4252C62.4527 12.5471 61.9783 12.6929 61.2996 12.6929C59.9981 12.6929 59.2051 11.837 59.2051 10.5819C59.2051 9.32673 59.9714 8.31543 61.212 8.31543C62.6011 8.31543 62.9636 9.51799 62.9636 10.2878C62.9636 10.4432 62.9538 10.5651 62.9368 10.6512L59.9543 10.6417L59.9519 10.644ZM62.2119 10.0989C62.2216 9.62318 62.01 8.86053 61.1464 8.86053C60.3557 8.86053 60.02 9.57059 59.9592 10.0989H62.2119Z" fill="white"/>
<path d="M67.4316 12.7017C66.2883 12.7017 65.3906 11.8721 65.3906 10.5476C65.3906 9.14664 66.3321 8.32422 67.5022 8.32422C68.6723 8.32422 69.5529 9.19685 69.5529 10.4687C69.5529 12.0251 68.4534 12.7017 67.4414 12.7017H67.4316ZM67.456 12.1327C68.1955 12.1327 68.7502 11.449 68.7502 10.4974C68.7502 9.78737 68.3901 8.898 67.4754 8.898C66.5607 8.898 66.1739 9.7276 66.1739 10.5237C66.1739 11.4418 66.7018 12.1327 67.4511 12.1327H67.4608H67.456Z" fill="white"/>
<path d="M70.4857 9.55459C70.4857 9.1123 70.476 8.76803 70.4492 8.42136H71.1352L71.179 9.10513H71.1961C71.4077 8.71782 71.8991 8.32812 72.6046 8.32812C73.1933 8.32812 74.1104 8.67479 74.1104 10.1092V12.6076H73.3344V10.1929C73.3344 9.51873 73.0789 8.94733 72.3491 8.94733C71.848 8.94733 71.4515 9.30117 71.3104 9.72673C71.2763 9.82236 71.2569 9.96102 71.2569 10.083V12.6076H70.4833V9.55459H70.4857Z" fill="white"/>
<path d="M78.0804 7.41884V8.42058H79.1872V8.99914H78.0804V11.256C78.0804 11.7748 78.2312 12.0689 78.6593 12.0689C78.871 12.0689 78.995 12.0522 79.1094 12.0163L79.1434 12.5949C78.995 12.6475 78.7566 12.6977 78.4574 12.6977C78.095 12.6977 77.8055 12.5757 77.6206 12.3773C77.4089 12.143 77.3214 11.77 77.3214 11.2775V8.99436H76.6621V8.4158H77.3214V7.64597L78.0779 7.41406L78.0804 7.41884Z" fill="white"/>
<path d="M80.0166 6.46767H80.7902V9.07839H80.8072C80.9313 8.86083 81.1235 8.66479 81.3619 8.54286C81.5905 8.4042 81.863 8.3253 82.1549 8.3253C82.7266 8.3253 83.6413 8.67196 83.6413 10.116V12.6072H82.8677V10.2021C82.8677 9.5183 82.6123 8.95647 81.8825 8.95647C81.3813 8.95647 80.9945 9.30313 80.8437 9.71673C80.7999 9.81953 80.7902 9.93429 80.7902 10.0801V12.6048H80.0166V6.46289V6.46767Z" fill="white"/>
<path d="M85.2957 10.644C85.3127 11.6745 85.9744 12.0976 86.748 12.0976C87.3026 12.0976 87.6456 12.002 87.9278 11.8896L88.0689 12.4252C87.7965 12.5471 87.3197 12.6929 86.6434 12.6929C85.3419 12.6929 84.5488 11.837 84.5488 10.5819C84.5488 9.32673 85.3151 8.31543 86.5558 8.31543C87.9448 8.31543 88.3073 9.51799 88.3073 10.2878C88.3073 10.4432 88.2976 10.5651 88.2806 10.6512L85.2957 10.6417V10.644ZM87.5581 10.0989C87.5654 9.62318 87.3561 8.86053 86.4925 8.86053C85.7019 8.86053 85.3662 9.57059 85.3054 10.0989H87.5581Z" fill="white"/>
<path d="M91.4138 7.65122C91.1219 7.65122 90.9297 7.42648 90.9297 7.15872C90.9297 6.89095 91.1316 6.67578 91.4308 6.67578C91.73 6.67578 91.9247 6.89095 91.9247 7.15872C91.9247 7.42648 91.73 7.65122 91.4211 7.65122H91.4138ZM91.0416 12.6073V8.42104H91.8152V12.6073H91.0416Z" fill="white"/>
<path d="M93.0825 6.85435C93.4523 6.78502 93.9364 6.73242 94.5519 6.73242C95.3084 6.73242 95.8631 6.90456 96.2134 7.21775C96.5393 7.49508 96.7413 7.91824 96.7413 8.43704C96.7413 8.95584 96.5831 9.37901 96.2742 9.68263C95.8704 10.1082 95.2087 10.3234 94.4618 10.3234C94.2332 10.3234 94.0215 10.3138 93.8464 10.2732V12.6089H93.0801V6.85674L93.0825 6.85435ZM93.8488 9.65873C94.0167 9.70176 94.2356 9.7185 94.4837 9.7185C95.4155 9.7185 95.9701 9.26903 95.9701 8.48247C95.9701 7.6959 95.4155 7.33251 94.5713 7.33251C94.238 7.33251 93.9826 7.36598 93.8488 7.39227V9.65873Z" fill="white"/>
<path d="M97.6514 6.46767H98.4274V9.07839H98.4444C98.5685 8.86083 98.7607 8.66479 98.9991 8.54286C99.2277 8.4042 99.5026 8.3253 99.7921 8.3253C100.364 8.3253 101.278 8.67196 101.278 10.116V12.6072H100.505V10.2021C100.505 9.5183 100.249 8.95647 99.5197 8.95647C99.0185 8.95647 98.6317 9.30313 98.4809 9.71673C98.4371 9.81953 98.4274 9.93429 98.4274 10.0801V12.6048H97.6514V6.46289V6.46767Z" fill="white"/>
<path d="M104.227 12.7017C103.083 12.7017 102.186 11.8721 102.186 10.5476C102.186 9.14664 103.127 8.32422 104.3 8.32422C105.472 8.32422 106.35 9.19685 106.35 10.4687C106.35 12.0251 105.251 12.7017 104.239 12.7017H104.229H104.227ZM104.253 12.1327C104.99 12.1327 105.548 11.449 105.548 10.4974C105.548 9.78737 105.187 8.898 104.27 8.898C103.353 8.898 102.966 9.7276 102.966 10.5237C102.966 11.4418 103.494 12.1327 104.244 12.1327H104.253Z" fill="white"/>
<path d="M107.28 9.55459C107.28 9.1123 107.27 8.76803 107.246 8.42136H107.932L107.976 9.10513H107.993C108.205 8.71782 108.696 8.32812 109.401 8.32812C109.99 8.32812 110.905 8.67479 110.905 10.1092V12.6076H110.131V10.1929C110.131 9.51873 109.876 8.94733 109.146 8.94733C108.645 8.94733 108.248 9.30117 108.107 9.72673C108.071 9.82236 108.054 9.96102 108.054 10.083V12.6076H107.28V9.55459Z" fill="white"/>
<path d="M112.558 10.644C112.575 11.6745 113.237 12.0976 114.011 12.0976C114.565 12.0976 114.908 12.002 115.191 11.8896L115.332 12.4252C115.059 12.5471 114.582 12.6929 113.906 12.6929C112.605 12.6929 111.812 11.837 111.812 10.5819C111.812 9.32673 112.578 8.31543 113.818 8.31543C115.21 8.31543 115.57 9.51799 115.57 10.2878C115.57 10.4432 115.56 10.5651 115.543 10.6512L112.558 10.6417V10.644ZM114.821 10.0989C114.83 9.62318 114.619 8.86053 113.755 8.86053C112.962 8.86053 112.629 9.57059 112.568 10.0989H114.821Z" fill="white"/>
<path d="M35.6361 16.5566L30.418 31.652H32.8069L34.3638 27.0163H39.4164L41.0196 31.652H43.4742L38.2342 16.5566H35.6361ZM36.8743 19.0383C37.0495 19.7125 37.2416 20.413 37.4849 21.1684L38.891 25.1706H34.8892L36.2759 21.1421C36.4875 20.4895 36.687 19.7842 36.8743 19.0383Z" fill="white"/>
<path d="M50.2302 20.4697C48.6466 20.4697 47.3791 21.0698 46.535 22.2126L46.4426 20.7112H44.3164L44.3286 20.9025C44.3918 21.8372 44.4186 22.8677 44.4186 24.3452V35.9811H46.7418V30.5516C47.4619 31.4003 48.6149 31.8928 49.9189 31.8928C51.2228 31.8928 52.5291 31.3693 53.4414 30.4225C54.4582 29.3658 54.9959 27.8453 54.9959 26.0283C54.9959 24.4241 54.5288 23.0374 53.6457 22.0166C52.7797 21.0196 51.5682 20.4697 50.2302 20.4697ZM49.6513 22.3608C51.7239 22.3608 52.6508 24.2471 52.6508 26.1167C52.6508 28.5266 51.4685 30.0256 49.5637 30.0256C48.2646 30.0256 47.1383 29.1554 46.8269 27.9074C46.7734 27.7138 46.7442 27.458 46.7442 27.1687V25.3326C46.7442 25.1652 46.7831 24.9644 46.8196 24.7683C46.8318 24.7062 46.844 24.644 46.8537 24.5819C47.1991 23.2741 48.3498 22.3632 49.6561 22.3632L49.6513 22.3608Z" fill="white"/>
<path d="M62.1961 20.4697C60.6124 20.4697 59.345 21.0698 58.5008 22.2126L58.4084 20.7112H56.2822L56.2944 20.9025C56.3576 21.8396 56.3844 22.8677 56.3844 24.3452V35.9811H58.71V30.5516C59.4301 31.4003 60.5808 31.8928 61.8847 31.8928C63.1886 31.8928 64.495 31.3693 65.4072 30.4225C66.4241 29.3658 66.9617 27.8453 66.9617 26.0283C66.9617 24.4241 66.4946 23.0374 65.6115 22.0166C64.7455 21.0196 63.534 20.4697 62.1961 20.4697ZM61.6195 22.3608C63.6897 22.3608 64.6166 24.2471 64.6166 26.1167C64.6166 28.5266 63.4319 30.0256 61.5295 30.0256C60.2305 30.0256 59.1041 29.1554 58.7927 27.9074C58.7392 27.7138 58.71 27.458 58.71 27.1687V25.3326C58.71 25.1652 58.7465 24.962 58.783 24.7659C58.7952 24.7038 58.8049 24.644 58.8171 24.5819C59.1625 23.2741 60.3132 22.3632 61.6171 22.3632L61.6195 22.3608Z" fill="white"/>
<path d="M77.1887 22.9542C75.0187 22.1293 74.3254 21.4791 74.3254 20.2789C74.3254 19.27 75.1428 18.2515 76.9673 18.2515C78.4731 18.2515 79.4365 18.7655 79.6943 18.9233L79.8914 19.0429L80.5482 17.1374L80.4193 17.0633C80.03 16.8386 78.9207 16.3174 77.0354 16.3174C74.0724 16.3174 72.0022 18.0363 72.0022 20.4988C72.0022 22.4832 73.2988 23.8722 76.0818 24.8644C78.0547 25.5888 78.7869 26.3323 78.7869 27.6042C78.7869 29.0435 77.6557 29.9376 75.8337 29.9376C74.6465 29.9376 73.4253 29.5981 72.4839 29.0052L72.2819 28.8785L71.6592 30.8294L71.7735 30.9035C72.6517 31.4797 74.3011 31.8957 75.6999 31.8957C79.6943 31.8957 81.1101 29.5025 81.1101 27.4512C81.1101 25.3999 79.9741 24.0348 77.1887 22.9542Z" fill="white"/>
<path d="M85.2939 18.1104L83.0145 18.8132V20.7115H81.3457V22.5381H83.0145V28.1301C83.0145 29.4809 83.2772 30.43 83.8197 31.0277C84.3379 31.5871 85.1382 31.8955 86.0675 31.8955C86.9457 31.8955 87.5709 31.7258 87.8628 31.623L87.9942 31.5776L87.8823 29.7486L87.6585 29.8156C87.3641 29.904 87.0625 29.9375 86.5784 29.9375C85.6783 29.9375 85.2939 29.3781 85.2939 28.0631V22.5381H88.0964V20.7115H85.2939V18.1104Z" fill="white"/>
<path d="M93.8581 20.4692C90.6056 20.4692 88.3359 22.8552 88.3359 26.2668C88.3359 29.6784 90.5326 31.8899 93.6805 31.8899H93.7024C96.3638 31.8899 99.2246 30.0681 99.2246 26.0684C99.2246 24.4427 98.7138 23.0464 97.7431 22.028C96.7676 21.0071 95.4248 20.4668 93.8581 20.4668V20.4692ZM93.79 22.2718C95.8821 22.2718 96.8333 24.2753 96.8333 26.1377C96.8333 28.4281 95.5342 30.0897 93.7462 30.0897H93.7243C91.9606 30.0897 90.681 28.4568 90.681 26.2046C90.681 24.249 91.642 22.2742 93.79 22.2742V22.2718Z" fill="white"/>
<path d="M106.342 20.5744L106.203 20.5385C105.999 20.4883 105.831 20.4668 105.624 20.4668C104.408 20.4668 103.318 21.1697 102.71 22.3053L102.641 20.7059H100.557L100.569 20.8971C100.63 21.8008 100.656 22.8169 100.656 24.1868L100.634 31.6484H102.958V25.8269C102.958 25.5089 102.98 25.2101 103.021 24.9423C103.284 23.5437 104.245 22.64 105.466 22.64C105.704 22.64 105.892 22.6591 106.089 22.6783L106.337 22.7046V20.572L106.342 20.5744Z" fill="white"/>
<path d="M111.567 20.4482C108.473 20.4482 106.312 22.8773 106.312 26.3558C106.312 29.8344 108.463 31.8713 111.791 31.8713C113.54 31.8713 114.759 31.4936 115.472 31.178L115.61 31.1159L115.165 29.4136L114.97 29.4901C114.338 29.7436 113.496 30.0018 112.058 30.0018C111.049 30.0018 108.721 29.6742 108.577 26.6905L116.08 26.7121L116.109 26.5662C116.158 26.3343 116.179 26.0211 116.179 25.6123C116.179 23.2311 114.973 20.4482 111.57 20.4482H111.567ZM111.411 22.1863C112.119 22.1863 112.693 22.4015 113.117 22.8271C113.786 23.4965 113.902 24.4815 113.917 24.9525H108.616C108.83 23.6328 109.672 22.1863 111.409 22.1863H111.411Z" fill="white"/>
</svg>
