<svg width="136" height="40" viewBox="0 0 136 40" fill="none" xmlns="http://www.w3.org/2000/svg">
<g clip-path="url(#clip0_4993_52744)">
<path d="M130.963 40H5.0371C2.2168 40 0 37.7995 0 35V5C0 2.20047 2.2168 0 5.0371 0H130.963C133.783 0 136 2.20047 136 5V35C136 37.7995 133.783 40 130.963 40Z" fill="black"/>
<path d="M130.963 0.799865C133.28 0.799865 135.194 2.69997 135.194 5V35C135.194 37.3 133.28 39.2001 130.963 39.2001H5.0371C2.72 39.2001 0.8058 37.3 0.8058 35V5C0.8058 2.69997 2.72 0.799865 5.0371 0.799865H130.963ZM130.963 0H5.0371C2.2168 0 0 2.30003 0 5V35C0 37.7995 2.2168 40 5.0371 40H130.963C133.783 40 136 37.7995 136 35V5C136 2.30003 133.783 0 130.963 0Z" fill="#A6A6A6"/>
<path d="M47.7513 10.1991C47.7513 10.999 47.549 11.6993 47.0458 12.1988C46.4406 12.7996 45.7368 13.0982 44.829 13.0982C43.9212 13.0982 43.2174 12.7979 42.6122 12.1988C42.007 11.5981 41.7061 10.8994 41.7061 9.99834C41.7061 9.09722 42.0087 8.39861 42.6122 7.79786C43.2174 7.19712 43.9212 6.89844 44.829 6.89844C45.2319 6.89844 45.6348 6.998 46.0377 7.19881C46.4406 7.39962 46.7432 7.59874 46.9438 7.89911L46.4406 8.39861C46.0377 7.89911 45.5345 7.6983 44.829 7.6983C44.2238 7.6983 43.6203 7.89911 43.2174 8.39861C42.7142 8.79854 42.5119 9.39928 42.5119 10.0979C42.5119 10.7965 42.7142 11.3973 43.2174 11.7972C43.7206 12.1971 44.2255 12.4975 44.829 12.4975C45.5345 12.4975 46.0377 12.2967 46.5409 11.7972C46.8435 11.4968 47.0441 11.0969 47.0441 10.5974H44.8273V9.79753H47.7496V10.1975L47.7513 10.1991ZM52.3855 7.69999H49.6655V9.60009H52.1832V10.3004H49.6655V12.2005H52.3855V13.0004H48.8597V6.99969H52.3855V7.69999ZM55.709 13.0004H54.9032V7.69999H53.1913V6.99969H57.4226V7.69999H55.7107V13.0004H55.709ZM60.3432 13.0004V6.99969H61.149V13.0004H60.3432ZM64.5745 13.0004H63.7687V7.69999H62.0568V6.99969H66.1878V7.69999H64.4759V13.0004H64.5762H64.5745ZM74.1455 12.2005C73.5403 12.8012 72.8365 13.0999 71.9287 13.0999C71.0209 13.0999 70.3171 12.7996 69.7119 12.2005C69.1067 11.5998 68.8058 10.9011 68.8058 10C68.8058 9.09891 69.1084 8.40029 69.7119 7.79955C70.3171 7.19881 71.0209 6.90012 71.9287 6.90012C72.8365 6.90012 73.5403 7.2005 74.1455 7.79955C74.7507 8.40029 75.0516 9.09891 75.0516 10C75.0516 10.9011 74.749 11.5998 74.1455 12.2005ZM70.3171 11.6993C70.72 12.0992 71.3252 12.3996 71.9287 12.3996C72.5322 12.3996 73.1374 12.1988 73.5403 11.6993C73.9432 11.2994 74.2458 10.6986 74.2458 10C74.2458 9.30141 74.0435 8.70066 73.5403 8.30073C73.1374 7.9008 72.5322 7.60043 71.9287 7.60043C71.3252 7.60043 70.72 7.80124 70.3171 8.30073C69.9142 8.70066 69.6116 9.30141 69.6116 10C69.6116 10.6986 69.8139 11.2994 70.3171 11.6993ZM76.16 13.0004V6.99969H77.0661L79.9884 11.6993V6.99969H80.7942V13.0004H79.9884L76.8655 8.09992V13.0004H76.16Z" fill="white" stroke="white" stroke-width="0.230931" stroke-miterlimit="59.26"/>
<path d="M68.605 21.8012C66.1876 21.8012 64.2734 23.6017 64.2734 26.1009C64.2734 28.6 66.1876 30.4006 68.605 30.4006C71.0224 30.4006 72.9366 28.6 72.9366 26.1009C72.9366 23.6017 71.0224 21.8012 68.605 21.8012ZM68.605 28.6C67.296 28.6 66.1876 27.4998 66.1876 25.9996C66.1876 24.4995 67.296 23.3992 68.605 23.3992C69.914 23.3992 71.0224 24.3999 71.0224 25.9996C71.0224 27.4998 69.914 28.6 68.605 28.6ZM59.2346 21.8012C56.8172 21.8012 54.903 23.6017 54.903 26.1009C54.903 28.6 56.8172 30.4006 59.2346 30.4006C61.652 30.4006 63.5662 28.6 63.5662 26.1009C63.5662 23.6017 61.652 21.8012 59.2346 21.8012ZM59.2346 28.6C57.9256 28.6 56.8172 27.4998 56.8172 25.9996C56.8172 24.4995 57.9256 23.3992 59.2346 23.3992C60.5436 23.3992 61.652 24.3999 61.652 25.9996C61.652 27.4998 60.5436 28.6 59.2346 28.6ZM48.0537 23.1006V24.9011H52.3853C52.285 25.9018 51.8821 26.7016 51.3772 27.2011C50.772 27.8019 49.7656 28.5005 48.052 28.5005C45.332 28.5005 43.3175 26.4013 43.3175 23.7013C43.3175 21.0013 45.4323 18.9021 48.052 18.9021C49.463 18.9021 50.5697 19.5028 51.3772 20.2015L52.6862 18.9021C51.5778 17.9014 50.1685 17.1016 48.1523 17.1016C44.5262 17.1016 41.4033 20.1019 41.4033 23.7013C41.4033 27.3007 44.5262 30.301 48.1523 30.301C50.1668 30.301 51.5778 29.7003 52.7865 28.4009C53.9952 27.2011 54.3981 25.5001 54.3981 24.2008C54.3981 23.8009 54.3981 23.4009 54.2978 23.1006H48.052H48.0537ZM93.7888 24.5012C93.3859 23.5005 92.3778 21.8012 90.1627 21.8012C87.9476 21.8012 86.1337 23.5005 86.1337 26.1009C86.1337 28.5005 87.9476 30.4006 90.365 30.4006C92.2792 30.4006 93.4879 29.2008 93.8908 28.5005L92.4798 27.4998C91.9766 28.2001 91.3714 28.6996 90.365 28.6996C89.3586 28.6996 88.7534 28.2997 88.2502 27.4002L93.9928 25.0007L93.7905 24.5012H93.7888ZM87.9459 25.9001C87.9459 24.3003 89.2549 23.4009 90.1627 23.4009C90.8682 23.4009 91.5737 23.8009 91.7743 24.3003L87.9459 25.9001ZM83.2114 30.0007H85.1256V17.5015H83.2114V30.0007ZM80.1888 22.7006C79.6856 22.2011 78.8798 21.6999 77.8717 21.6999C75.7569 21.6999 73.7407 23.6 73.7407 25.9996C73.7407 28.3992 75.6549 30.1998 77.8717 30.1998C78.8798 30.1998 79.6856 29.7003 80.0885 29.1991H80.1888V29.7998C80.1888 31.3996 79.2827 32.299 77.8717 32.299C76.7633 32.299 75.9575 31.4991 75.7569 30.7988L74.1453 31.4991C74.6485 32.5994 75.8572 33.9983 77.9737 33.9983C80.0902 33.9983 82.0027 32.6989 82.0027 29.599V21.9986H80.1888V22.6989V22.7006ZM77.9737 28.6C76.6647 28.6 75.5563 27.4998 75.5563 25.9996C75.5563 24.4995 76.6647 23.3992 77.9737 23.3992C79.2827 23.3992 80.2908 24.4995 80.2908 25.9996C80.2908 27.4998 79.2827 28.6 77.9737 28.6ZM102.554 17.4998H98.0201V29.999H99.9343V25.2993H102.554C104.669 25.2993 106.685 23.7992 106.685 21.3996C106.685 19 104.671 17.4998 102.554 17.4998ZM102.654 23.5005H99.9343V19.2008H102.654C104.065 19.2008 104.871 20.4006 104.871 21.3C104.771 22.4002 103.965 23.5005 102.654 23.5005ZM114.24 21.6999C112.829 21.6999 111.42 22.3007 110.915 23.6L112.627 24.3003C113.029 23.6 113.635 23.4009 114.338 23.4009C115.347 23.4009 116.253 24.0017 116.353 25.0007V25.1002C116.05 24.8994 115.245 24.6007 114.439 24.6007C112.625 24.6007 110.813 25.6014 110.813 27.4002C110.813 29.0995 112.324 30.1998 113.936 30.1998C115.245 30.1998 115.85 29.599 116.353 29H116.453V30.0007H118.267V25.2015C118.065 23.001 116.353 21.7016 114.238 21.7016L114.24 21.6999ZM114.038 28.6C113.432 28.6 112.526 28.2997 112.526 27.4998C112.526 26.4991 113.635 26.2004 114.541 26.2004C115.347 26.2004 115.749 26.4013 116.253 26.6004C116.05 27.8002 115.044 28.6 114.036 28.6H114.038ZM124.617 22.0003L122.502 27.4002H122.402L120.185 22.0003H118.17L121.495 29.6007L119.581 33.8009H121.495L126.633 22.0003H124.618H124.617ZM107.691 30.0007H109.606V17.5015H107.691V30.0007Z" fill="white"/>
<path d="M10.4771 7.5C10.1745 7.80037 10.0742 8.29987 10.0742 8.90061V30.9998C10.0742 31.6006 10.2765 32.1001 10.5774 32.4004L10.6777 32.5L23.1693 20.1004V19.8996L10.4771 7.5Z" fill="url(#paint0_linear_4993_52744)"/>
<path d="M27.2003 24.3003L23.0693 20.1998V19.8994L27.2003 15.7988L27.3006 15.8984L32.2374 18.6979C33.6484 19.4978 33.6484 20.7971 32.2374 21.5987L27.2003 24.2987V24.3003Z" fill="url(#paint1_linear_4993_52744)"/>
<path d="M27.3007 24.2001L23.0694 20L10.4775 32.4992C10.9807 32.9986 11.6862 32.9986 12.5923 32.5987L27.3007 24.1984" fill="url(#paint2_linear_4993_52744)"/>
<path d="M27.3007 15.8011L12.5923 7.50041C11.6862 7.00092 10.9807 7.10048 10.4775 7.59997L23.0694 19.9996L27.3007 15.7994V15.8011Z" fill="url(#paint3_linear_4993_52744)"/>
<path opacity="0.2" d="M27.2004 24.0993L12.5923 32.2988C11.7865 32.7983 11.081 32.6987 10.5778 32.2988L10.4775 32.3984L10.5778 32.4979C11.081 32.8979 11.7865 32.9974 12.5923 32.4979L27.2004 24.0977V24.0993Z" fill="black"/>
<path opacity="0.12" d="M10.4771 32.2998C10.1745 31.9994 10.0742 31.4999 10.0742 30.8992V30.9987C10.0742 31.5995 10.2765 32.099 10.5774 32.3993V32.2998H10.4771ZM32.2371 21.2991L27.2 24.0986L27.3003 24.1982L32.2371 21.3987C32.9426 20.9987 33.2452 20.4992 33.2452 19.998C33.2452 20.4975 32.8423 20.8975 32.2371 21.2974V21.2991Z" fill="black"/>
<path opacity="0.25" d="M12.5919 7.60062L32.2371 18.7009C32.8423 19.1008 33.2452 19.5007 33.2452 20.0002C33.2452 19.5007 32.9426 18.9995 32.2371 18.5996L12.5919 7.49937C11.1809 6.6995 10.0742 7.29856 10.0742 8.89998V8.99954C10.0742 7.49937 11.1826 6.79907 12.5919 7.59893V7.60062Z" fill="white"/>
</g>
<defs>
<linearGradient id="paint0_linear_4993_52744" x1="21.8751" y1="9.41767" x2="5.07414" y2="26.3332" gradientUnits="userSpaceOnUse">
<stop stop-color="#00A1FF"/>
<stop offset="0.26" stop-color="#00BEFF"/>
<stop offset="0.51" stop-color="#00D2FF"/>
<stop offset="0.76" stop-color="#00DFFF"/>
<stop offset="1" stop-color="#00E3FF"/>
</linearGradient>
<linearGradient id="paint1_linear_4993_52744" x1="34.0129" y1="20.7751" x2="9.61691" y2="20.7751" gradientUnits="userSpaceOnUse">
<stop stop-color="#FFE000"/>
<stop offset="0.41" stop-color="#FFBD00"/>
<stop offset="0.78" stop-color="#FFA500"/>
<stop offset="1" stop-color="#FF9C00"/>
</linearGradient>
<linearGradient id="paint2_linear_4993_52744" x1="24.92" y1="23.006" x2="2.14524" y2="45.9497" gradientUnits="userSpaceOnUse">
<stop stop-color="#FF3A44"/>
<stop offset="1" stop-color="#C31162"/>
</linearGradient>
<linearGradient id="paint3_linear_4993_52744" x1="7.21774" y1="0.922349" x2="17.3944" y2="11.1644" gradientUnits="userSpaceOnUse">
<stop stop-color="#32A071"/>
<stop offset="0.07" stop-color="#2DA771"/>
<stop offset="0.48" stop-color="#15CF74"/>
<stop offset="0.8" stop-color="#06E775"/>
<stop offset="1" stop-color="#00F076"/>
</linearGradient>
<clipPath id="clip0_4993_52744">
<rect width="136" height="40" fill="white"/>
</clipPath>
</defs>
</svg>
